<mxfile host="app.diagrams.net" modified="2024-04-06T14:39:01.961Z" agent="Mozilla/5.0 (X11; Linux x86_64; rv:109.0) Gecko/20100101 Firefox/115.0" etag="4BAe6fXNWuYyYPnuOQ9Y" version="23.0.2" type="github">
  <diagram name="Page-1" id="58cdce13-f638-feb5-8d6f-7d28b1aa9fa0">
    <mxGraphModel dx="738" dy="1093" grid="1" gridSize="10" guides="1" tooltips="1" connect="1" arrows="1" fold="1" page="1" pageScale="1" pageWidth="1100" pageHeight="850" background="none" math="0" shadow="0">
      <root>
        <mxCell id="0" />
        <mxCell id="1" parent="0" />
        <mxCell id="B5uQKu_vi1hf1Dh0g1Mj-43" style="edgeStyle=orthogonalEdgeStyle;rounded=0;orthogonalLoop=1;jettySize=auto;html=1;" edge="1" parent="1" source="B5uQKu_vi1hf1Dh0g1Mj-42" target="B5uQKu_vi1hf1Dh0g1Mj-44">
          <mxGeometry relative="1" as="geometry">
            <mxPoint x="380" y="180" as="targetPoint" />
            <Array as="points">
              <mxPoint x="340" y="180" />
              <mxPoint x="340" y="180" />
            </Array>
          </mxGeometry>
        </mxCell>
        <mxCell id="B5uQKu_vi1hf1Dh0g1Mj-45" value="ログイン" style="edgeLabel;html=1;align=center;verticalAlign=middle;resizable=0;points=[];" vertex="1" connectable="0" parent="B5uQKu_vi1hf1Dh0g1Mj-43">
          <mxGeometry x="-0.2" relative="1" as="geometry">
            <mxPoint x="-1" y="-1" as="offset" />
          </mxGeometry>
        </mxCell>
        <mxCell id="B5uQKu_vi1hf1Dh0g1Mj-48" style="edgeStyle=orthogonalEdgeStyle;rounded=0;orthogonalLoop=1;jettySize=auto;html=1;exitX=0.25;exitY=1;exitDx=0;exitDy=0;entryX=0.25;entryY=0;entryDx=0;entryDy=0;" edge="1" parent="1" source="B5uQKu_vi1hf1Dh0g1Mj-42" target="B5uQKu_vi1hf1Dh0g1Mj-55">
          <mxGeometry relative="1" as="geometry">
            <mxPoint x="195" y="300" as="targetPoint" />
            <Array as="points">
              <mxPoint x="200" y="250" />
              <mxPoint x="200" y="250" />
            </Array>
          </mxGeometry>
        </mxCell>
        <mxCell id="B5uQKu_vi1hf1Dh0g1Mj-42" value="ログイン画面" style="rounded=0;whiteSpace=wrap;html=1;" vertex="1" parent="1">
          <mxGeometry x="170" y="150" width="120" height="60" as="geometry" />
        </mxCell>
        <mxCell id="B5uQKu_vi1hf1Dh0g1Mj-57" style="edgeStyle=orthogonalEdgeStyle;rounded=0;orthogonalLoop=1;jettySize=auto;html=1;exitX=0.25;exitY=1;exitDx=0;exitDy=0;entryX=0.25;entryY=0;entryDx=0;entryDy=0;" edge="1" parent="1" source="B5uQKu_vi1hf1Dh0g1Mj-44" target="B5uQKu_vi1hf1Dh0g1Mj-58">
          <mxGeometry relative="1" as="geometry">
            <mxPoint x="443" y="300" as="targetPoint" />
          </mxGeometry>
        </mxCell>
        <mxCell id="B5uQKu_vi1hf1Dh0g1Mj-61" style="edgeStyle=orthogonalEdgeStyle;rounded=0;orthogonalLoop=1;jettySize=auto;html=1;exitX=1;exitY=0.25;exitDx=0;exitDy=0;entryX=0;entryY=0.25;entryDx=0;entryDy=0;" edge="1" parent="1" source="B5uQKu_vi1hf1Dh0g1Mj-44" target="B5uQKu_vi1hf1Dh0g1Mj-60">
          <mxGeometry relative="1" as="geometry" />
        </mxCell>
        <mxCell id="B5uQKu_vi1hf1Dh0g1Mj-44" value="本の一覧画面" style="rounded=0;whiteSpace=wrap;html=1;" vertex="1" parent="1">
          <mxGeometry x="410" y="145" width="130" height="70" as="geometry" />
        </mxCell>
        <mxCell id="B5uQKu_vi1hf1Dh0g1Mj-49" style="edgeStyle=orthogonalEdgeStyle;rounded=0;orthogonalLoop=1;jettySize=auto;html=1;exitX=0.75;exitY=0;exitDx=0;exitDy=0;entryX=0.75;entryY=1;entryDx=0;entryDy=0;" edge="1" parent="1" source="B5uQKu_vi1hf1Dh0g1Mj-55" target="B5uQKu_vi1hf1Dh0g1Mj-42">
          <mxGeometry relative="1" as="geometry">
            <mxPoint x="265" y="300" as="sourcePoint" />
            <Array as="points" />
          </mxGeometry>
        </mxCell>
        <mxCell id="B5uQKu_vi1hf1Dh0g1Mj-52" style="edgeStyle=orthogonalEdgeStyle;rounded=0;orthogonalLoop=1;jettySize=auto;html=1;exitX=1;exitY=0.25;exitDx=0;exitDy=0;entryX=0.667;entryY=0;entryDx=0;entryDy=0;entryPerimeter=0;" edge="1" parent="1" source="B5uQKu_vi1hf1Dh0g1Mj-42" target="B5uQKu_vi1hf1Dh0g1Mj-42">
          <mxGeometry relative="1" as="geometry">
            <mxPoint x="300.04" y="155.0000000000001" as="sourcePoint" />
            <mxPoint x="250" y="140" as="targetPoint" />
            <Array as="points">
              <mxPoint x="320" y="165" />
              <mxPoint x="320" y="90" />
              <mxPoint x="250" y="90" />
            </Array>
          </mxGeometry>
        </mxCell>
        <mxCell id="B5uQKu_vi1hf1Dh0g1Mj-55" value="ログイン画面" style="rounded=0;whiteSpace=wrap;html=1;" vertex="1" parent="1">
          <mxGeometry x="170" y="310" width="120" height="60" as="geometry" />
        </mxCell>
        <mxCell id="B5uQKu_vi1hf1Dh0g1Mj-63" style="edgeStyle=orthogonalEdgeStyle;rounded=0;orthogonalLoop=1;jettySize=auto;html=1;exitX=0.75;exitY=0;exitDx=0;exitDy=0;entryX=0.75;entryY=1;entryDx=0;entryDy=0;" edge="1" parent="1" source="B5uQKu_vi1hf1Dh0g1Mj-58" target="B5uQKu_vi1hf1Dh0g1Mj-44">
          <mxGeometry relative="1" as="geometry" />
        </mxCell>
        <mxCell id="B5uQKu_vi1hf1Dh0g1Mj-70" style="edgeStyle=orthogonalEdgeStyle;rounded=0;orthogonalLoop=1;jettySize=auto;html=1;exitX=0.25;exitY=1;exitDx=0;exitDy=0;entryX=0.25;entryY=0;entryDx=0;entryDy=0;" edge="1" parent="1" source="B5uQKu_vi1hf1Dh0g1Mj-58" target="B5uQKu_vi1hf1Dh0g1Mj-69">
          <mxGeometry relative="1" as="geometry" />
        </mxCell>
        <mxCell id="B5uQKu_vi1hf1Dh0g1Mj-58" value="ユーザー一覧画面" style="rounded=0;whiteSpace=wrap;html=1;" vertex="1" parent="1">
          <mxGeometry x="410" y="300" width="130" height="70" as="geometry" />
        </mxCell>
        <mxCell id="B5uQKu_vi1hf1Dh0g1Mj-62" style="edgeStyle=orthogonalEdgeStyle;rounded=0;orthogonalLoop=1;jettySize=auto;html=1;exitX=0;exitY=0.75;exitDx=0;exitDy=0;entryX=1;entryY=0.75;entryDx=0;entryDy=0;" edge="1" parent="1" source="B5uQKu_vi1hf1Dh0g1Mj-60" target="B5uQKu_vi1hf1Dh0g1Mj-44">
          <mxGeometry relative="1" as="geometry" />
        </mxCell>
        <mxCell id="B5uQKu_vi1hf1Dh0g1Mj-67" style="edgeStyle=orthogonalEdgeStyle;rounded=0;orthogonalLoop=1;jettySize=auto;html=1;exitX=0.25;exitY=1;exitDx=0;exitDy=0;entryX=0.25;entryY=0;entryDx=0;entryDy=0;" edge="1" parent="1" source="B5uQKu_vi1hf1Dh0g1Mj-60" target="B5uQKu_vi1hf1Dh0g1Mj-65">
          <mxGeometry relative="1" as="geometry" />
        </mxCell>
        <mxCell id="B5uQKu_vi1hf1Dh0g1Mj-60" value="個別の本のページ" style="rounded=0;whiteSpace=wrap;html=1;" vertex="1" parent="1">
          <mxGeometry x="640" y="145" width="130" height="70" as="geometry" />
        </mxCell>
        <mxCell id="B5uQKu_vi1hf1Dh0g1Mj-68" style="edgeStyle=orthogonalEdgeStyle;rounded=0;orthogonalLoop=1;jettySize=auto;html=1;exitX=0.75;exitY=0;exitDx=0;exitDy=0;entryX=0.75;entryY=1;entryDx=0;entryDy=0;" edge="1" parent="1" source="B5uQKu_vi1hf1Dh0g1Mj-65" target="B5uQKu_vi1hf1Dh0g1Mj-60">
          <mxGeometry relative="1" as="geometry" />
        </mxCell>
        <mxCell id="B5uQKu_vi1hf1Dh0g1Mj-65" value="本の編集ページ" style="rounded=0;whiteSpace=wrap;html=1;" vertex="1" parent="1">
          <mxGeometry x="640" y="300" width="130" height="70" as="geometry" />
        </mxCell>
        <mxCell id="B5uQKu_vi1hf1Dh0g1Mj-71" style="edgeStyle=orthogonalEdgeStyle;rounded=0;orthogonalLoop=1;jettySize=auto;html=1;exitX=0.75;exitY=0;exitDx=0;exitDy=0;entryX=0.75;entryY=1;entryDx=0;entryDy=0;" edge="1" parent="1" source="B5uQKu_vi1hf1Dh0g1Mj-69" target="B5uQKu_vi1hf1Dh0g1Mj-58">
          <mxGeometry relative="1" as="geometry" />
        </mxCell>
        <mxCell id="B5uQKu_vi1hf1Dh0g1Mj-69" value="アカウント編集ページ" style="rounded=0;whiteSpace=wrap;html=1;" vertex="1" parent="1">
          <mxGeometry x="410" y="460" width="130" height="70" as="geometry" />
        </mxCell>
      </root>
    </mxGraphModel>
  </diagram>
</mxfile>
